<?plantuml 1.2026.2?><svg xmlns="http://www.w3.org/2000/svg" xmlns:xlink="http://www.w3.org/1999/xlink" contentStyleType="text/css" data-diagram-type="SEQUENCE" height="1967px" preserveAspectRatio="none" style="width:946px;height:1967px;background:#FFFFFF;" version="1.1" viewBox="0 0 946 1967" width="946px" zoomAndPan="magnify"><defs/><g><g><title>GameCLI</title><rect fill="#FFFFFF" height="91.0547" style="stroke:#181818;stroke-width:1;" width="10" x="169.293" y="338.4219"/></g><g><title>GameCLI</title><rect fill="#FFFFFF" height="60.7031" style="stroke:#181818;stroke-width:1;" width="10" x="169.293" y="853.3438"/></g><g><title>GameCLI</title><rect fill="#FFFFFF" height="60.7031" style="stroke:#181818;stroke-width:1;" width="10" x="169.293" y="1323.9141"/></g><g><title>GameCLI</title><rect fill="#FFFFFF" height="30.3516" style="stroke:#181818;stroke-width:1;" width="10" x="169.293" y="1912.5391"/></g><g><title>BattleEngine</title><rect fill="#FFFFFF" height="1895.2813" style="stroke:#181818;stroke-width:1;" width="10" x="277.0293" y="47.6094"/></g><g><title>Warrior</title><rect fill="#FFFFFF" height="14" style="stroke:#181818;stroke-width:1;" width="10" x="448.3037" y="205.3672"/></g><g><title>Warrior</title><rect fill="#FFFFFF" height="151.7578" style="stroke:#181818;stroke-width:1;" width="10" x="448.3037" y="308.0703"/></g><g><title>Warrior</title><rect fill="#FFFFFF" height="14" style="stroke:#181818;stroke-width:1;" width="10" x="448.3037" y="520.5313"/></g><g><title>Warrior</title><rect fill="#FFFFFF" height="17" style="stroke:#181818;stroke-width:1;" width="10" x="448.3037" y="717.2891"/></g><g><title>Warrior</title><rect fill="#FFFFFF" height="121.4063" style="stroke:#181818;stroke-width:1;" width="10" x="448.3037" y="822.9922"/></g><g><title>Warrior</title><rect fill="#FFFFFF" height="121.4063" style="stroke:#181818;stroke-width:1;" width="10" x="448.3037" y="1293.5625"/></g><g><title>Warrior</title><rect fill="#FFFFFF" height="14" style="stroke:#181818;stroke-width:1;" width="10" x="448.3037" y="1475.6719"/></g><g><title>Warrior</title><rect fill="#FFFFFF" height="30.3516" style="stroke:#181818;stroke-width:1;" width="10" x="448.3037" y="1683.4297"/></g><g><title>Goblin</title><rect fill="#FFFFFF" height="30.3516" style="stroke:#181818;stroke-width:1;" width="10" x="515.4795" y="114.3125"/></g><g><title>Goblin</title><rect fill="#FFFFFF" height="30.3516" style="stroke:#181818;stroke-width:1;" width="10" x="515.4795" y="623.2344"/></g><g><title>Goblin</title><rect fill="#FFFFFF" height="14" style="stroke:#181818;stroke-width:1;" width="10" x="515.4795" y="1005.1016"/></g><g><title>Goblin</title><rect fill="#FFFFFF" height="14" style="stroke:#181818;stroke-width:1;" width="10" x="515.4795" y="1049.4531"/></g><g><title>Goblin</title><rect fill="#FFFFFF" height="66.7031" style="stroke:#181818;stroke-width:1;" width="10" x="515.4795" y="1152.1563"/></g><g><title>Goblin</title><rect fill="#FFFFFF" height="30.3516" style="stroke:#181818;stroke-width:1;" width="10" x="515.4795" y="1578.375"/></g><g><title>Goblin</title><rect fill="#FFFFFF" height="50.3516" style="stroke:#181818;stroke-width:1;" width="10" x="515.4795" y="1774.4844"/></g><g><title>BasicAttack</title><rect fill="#FFFFFF" height="58.3516" style="stroke:#181818;stroke-width:1;" width="10" x="658.6421" y="175.0156"/></g><g><title>BasicAttack</title><rect fill="#FFFFFF" height="64.3516" style="stroke:#181818;stroke-width:1;" width="10" x="658.6421" y="683.9375"/></g><g><title>BasicAttack</title><rect fill="#FFFFFF" height="94.7031" style="stroke:#181818;stroke-width:1;" width="10" x="658.6421" y="1744.1328"/></g><g><title>Defend</title><rect fill="#FFFFFF" height="58.3516" style="stroke:#181818;stroke-width:1;" width="10" x="741.7832" y="490.1797"/></g><g><title>ShieldBash</title><rect fill="#FFFFFF" height="102.7031" style="stroke:#181818;stroke-width:1;" width="10" x="823.769" y="974.75"/></g><g><title>Potion</title><rect fill="#FFFFFF" height="58.3516" style="stroke:#181818;stroke-width:1;" width="10" x="903.0308" y="1445.3203"/></g><g class="participant-lifeline" data-entity-uid="part1" data-qualified-name="P" id="part1-lifeline"><g><title>Player</title><rect fill="#000000" fill-opacity="0.00000" height="1923.2813" width="8" x="27.8413" y="37.6094"/><line style="stroke:#181818;stroke-width:0.5;stroke-dasharray:5,5;" x1="31" x2="31" y1="37.6094" y2="1960.8906"/></g></g><g class="participant-lifeline" data-entity-uid="part2" data-qualified-name="CLI" id="part2-lifeline"><g><title>GameCLI</title><rect fill="#000000" fill-opacity="0.00000" height="1923.2813" width="8" x="170.293" y="37.6094"/><line style="stroke:#181818;stroke-width:0.5;stroke-dasharray:5,5;" x1="173.3379" x2="173.3379" y1="37.6094" y2="1960.8906"/></g></g><g class="participant-lifeline" data-entity-uid="part3" data-qualified-name="Engine" id="part3-lifeline"><g><title>BattleEngine</title><rect fill="#000000" fill-opacity="0.00000" height="1923.2813" width="8" x="278.0293" y="37.6094"/><line style="stroke:#181818;stroke-width:0.5;stroke-dasharray:5,5;" x1="281.333" x2="281.333" y1="37.6094" y2="1960.8906"/></g></g><g class="participant-lifeline" data-entity-uid="part4" data-qualified-name="W" id="part4-lifeline"><g><title>Warrior</title><rect fill="#000000" fill-opacity="0.00000" height="1923.2813" width="8" x="449.3037" y="37.6094"/><line style="stroke:#181818;stroke-width:0.5;stroke-dasharray:5,5;" x1="452.3623" x2="452.3623" y1="37.6094" y2="1960.8906"/></g></g><g class="participant-lifeline" data-entity-uid="part5" data-qualified-name="G" id="part5-lifeline"><g><title>Goblin</title><rect fill="#000000" fill-opacity="0.00000" height="1923.2813" width="8" x="516.4795" y="37.6094"/><line style="stroke:#181818;stroke-width:0.5;stroke-dasharray:5,5;" x1="520.2451" x2="520.2451" y1="37.6094" y2="1960.8906"/></g></g><g class="participant-lifeline" data-entity-uid="part6" data-qualified-name="BA" id="part6-lifeline"><g><title>BasicAttack</title><rect fill="#000000" fill-opacity="0.00000" height="1923.2813" width="8" x="659.6421" y="37.6094"/><line style="stroke:#181818;stroke-width:0.5;stroke-dasharray:5,5;" x1="663.0732" x2="663.0732" y1="37.6094" y2="1960.8906"/></g></g><g class="participant-lifeline" data-entity-uid="part7" data-qualified-name="D" id="part7-lifeline"><g><title>Defend</title><rect fill="#000000" fill-opacity="0.00000" height="1923.2813" width="8" x="742.7832" y="37.6094"/><line style="stroke:#181818;stroke-width:0.5;stroke-dasharray:5,5;" x1="746.2109" x2="746.2109" y1="37.6094" y2="1960.8906"/></g></g><g class="participant-lifeline" data-entity-uid="part8" data-qualified-name="SB" id="part8-lifeline"><g><title>ShieldBash</title><rect fill="#000000" fill-opacity="0.00000" height="1923.2813" width="8" x="824.769" y="37.6094"/><line style="stroke:#181818;stroke-width:0.5;stroke-dasharray:5,5;" x1="828.3555" x2="828.3555" y1="37.6094" y2="1960.8906"/></g></g><g class="participant-lifeline" data-entity-uid="part9" data-qualified-name="Pot" id="part9-lifeline"><g><title>Potion</title><rect fill="#000000" fill-opacity="0.00000" height="1923.2813" width="8" x="904.0308" y="37.6094"/><line style="stroke:#181818;stroke-width:0.5;stroke-dasharray:5,5;" x1="907.1826" x2="907.1826" y1="37.6094" y2="1960.8906"/></g></g><g class="participant participant-head" data-entity-uid="part1" data-qualified-name="P" id="part1-head"><rect fill="#E2E2F0" height="31.6094" rx="2.5" ry="2.5" style="stroke:#181818;stroke-width:0.5;" width="53.6826" x="5" y="5"/><text fill="#000000" font-family="sans-serif" font-size="14" lengthAdjust="spacing" textLength="39.6826" x="12" y="26.5332">Player</text></g><g class="participant participant-head" data-entity-uid="part2" data-qualified-name="CLI" id="part2-head"><rect fill="#E2E2F0" height="31.6094" rx="2.5" ry="2.5" style="stroke:#181818;stroke-width:0.5;" width="73.9102" x="137.3379" y="5"/><text fill="#000000" font-family="sans-serif" font-size="14" lengthAdjust="spacing" textLength="59.9102" x="144.3379" y="26.5332">GameCLI</text></g><g class="participant participant-head" data-entity-uid="part3" data-qualified-name="Engine" id="part3-head"><rect fill="#E2E2F0" height="31.6094" rx="2.5" ry="2.5" style="stroke:#181818;stroke-width:0.5;" width="93.3926" x="235.333" y="5"/><text fill="#000000" font-family="sans-serif" font-size="14" lengthAdjust="spacing" textLength="79.3926" x="242.333" y="26.5332">BattleEngine</text></g><g class="participant participant-head" data-entity-uid="part4" data-qualified-name="W" id="part4-head"><rect fill="#E2E2F0" height="31.6094" rx="2.5" ry="2.5" style="stroke:#181818;stroke-width:0.5;" width="59.8828" x="423.3623" y="5"/><text fill="#000000" font-family="sans-serif" font-size="14" lengthAdjust="spacing" textLength="45.8828" x="430.3623" y="26.5332">Warrior</text></g><g class="participant participant-head" data-entity-uid="part5" data-qualified-name="G" id="part5-head"><rect fill="#E2E2F0" height="31.6094" rx="2.5" ry="2.5" style="stroke:#181818;stroke-width:0.5;" width="54.4688" x="493.2451" y="5"/><text fill="#000000" font-family="sans-serif" font-size="14" lengthAdjust="spacing" textLength="40.4688" x="500.2451" y="26.5332">Goblin</text></g><g class="participant participant-head" data-entity-uid="part6" data-qualified-name="BA" id="part6-head"><rect fill="#E2E2F0" height="31.6094" rx="2.5" ry="2.5" style="stroke:#181818;stroke-width:0.5;" width="87.1377" x="620.0732" y="5"/><text fill="#000000" font-family="sans-serif" font-size="14" lengthAdjust="spacing" textLength="73.1377" x="627.0732" y="26.5332">BasicAttack</text></g><g class="participant participant-head" data-entity-uid="part7" data-qualified-name="D" id="part7-head"><rect fill="#E2E2F0" height="31.6094" rx="2.5" ry="2.5" style="stroke:#181818;stroke-width:0.5;" width="59.1445" x="717.2109" y="5"/><text fill="#000000" font-family="sans-serif" font-size="14" lengthAdjust="spacing" textLength="45.1445" x="724.2109" y="26.5332">Defend</text></g><g class="participant participant-head" data-entity-uid="part8" data-qualified-name="SB" id="part8-head"><rect fill="#E2E2F0" height="31.6094" rx="2.5" ry="2.5" style="stroke:#181818;stroke-width:0.5;" width="84.8271" x="786.3555" y="5"/><text fill="#000000" font-family="sans-serif" font-size="14" lengthAdjust="spacing" textLength="70.8271" x="793.3555" y="26.5332">ShieldBash</text></g><g class="participant participant-head" data-entity-uid="part9" data-qualified-name="Pot" id="part9-head"><rect fill="#E2E2F0" height="31.6094" rx="2.5" ry="2.5" style="stroke:#181818;stroke-width:0.5;" width="53.6963" x="881.1826" y="5"/><text fill="#000000" font-family="sans-serif" font-size="14" lengthAdjust="spacing" textLength="39.6963" x="888.1826" y="26.5332">Potion</text></g><g><title>GameCLI</title><rect fill="#FFFFFF" height="91.0547" style="stroke:#181818;stroke-width:1;" width="10" x="169.293" y="338.4219"/></g><g><title>GameCLI</title><rect fill="#FFFFFF" height="60.7031" style="stroke:#181818;stroke-width:1;" width="10" x="169.293" y="853.3438"/></g><g><title>GameCLI</title><rect fill="#FFFFFF" height="60.7031" style="stroke:#181818;stroke-width:1;" width="10" x="169.293" y="1323.9141"/></g><g><title>GameCLI</title><rect fill="#FFFFFF" height="30.3516" style="stroke:#181818;stroke-width:1;" width="10" x="169.293" y="1912.5391"/></g><g><title>BattleEngine</title><rect fill="#FFFFFF" height="1895.2813" style="stroke:#181818;stroke-width:1;" width="10" x="277.0293" y="47.6094"/></g><g><title>Warrior</title><rect fill="#FFFFFF" height="14" style="stroke:#181818;stroke-width:1;" width="10" x="448.3037" y="205.3672"/></g><g><title>Warrior</title><rect fill="#FFFFFF" height="151.7578" style="stroke:#181818;stroke-width:1;" width="10" x="448.3037" y="308.0703"/></g><g><title>Warrior</title><rect fill="#FFFFFF" height="14" style="stroke:#181818;stroke-width:1;" width="10" x="448.3037" y="520.5313"/></g><g><title>Warrior</title><rect fill="#FFFFFF" height="17" style="stroke:#181818;stroke-width:1;" width="10" x="448.3037" y="717.2891"/></g><g><title>Warrior</title><rect fill="#FFFFFF" height="121.4063" style="stroke:#181818;stroke-width:1;" width="10" x="448.3037" y="822.9922"/></g><g><title>Warrior</title><rect fill="#FFFFFF" height="121.4063" style="stroke:#181818;stroke-width:1;" width="10" x="448.3037" y="1293.5625"/></g><g><title>Warrior</title><rect fill="#FFFFFF" height="14" style="stroke:#181818;stroke-width:1;" width="10" x="448.3037" y="1475.6719"/></g><g><title>Warrior</title><rect fill="#FFFFFF" height="30.3516" style="stroke:#181818;stroke-width:1;" width="10" x="448.3037" y="1683.4297"/></g><g><title>Goblin</title><rect fill="#FFFFFF" height="30.3516" style="stroke:#181818;stroke-width:1;" width="10" x="515.4795" y="114.3125"/></g><g><title>Goblin</title><rect fill="#FFFFFF" height="30.3516" style="stroke:#181818;stroke-width:1;" width="10" x="515.4795" y="623.2344"/></g><g><title>Goblin</title><rect fill="#FFFFFF" height="14" style="stroke:#181818;stroke-width:1;" width="10" x="515.4795" y="1005.1016"/></g><g><title>Goblin</title><rect fill="#FFFFFF" height="14" style="stroke:#181818;stroke-width:1;" width="10" x="515.4795" y="1049.4531"/></g><g><title>Goblin</title><rect fill="#FFFFFF" height="66.7031" style="stroke:#181818;stroke-width:1;" width="10" x="515.4795" y="1152.1563"/></g><g><title>Goblin</title><rect fill="#FFFFFF" height="30.3516" style="stroke:#181818;stroke-width:1;" width="10" x="515.4795" y="1578.375"/></g><g><title>Goblin</title><rect fill="#FFFFFF" height="50.3516" style="stroke:#181818;stroke-width:1;" width="10" x="515.4795" y="1774.4844"/></g><g><title>BasicAttack</title><rect fill="#FFFFFF" height="58.3516" style="stroke:#181818;stroke-width:1;" width="10" x="658.6421" y="175.0156"/></g><g><title>BasicAttack</title><rect fill="#FFFFFF" height="64.3516" style="stroke:#181818;stroke-width:1;" width="10" x="658.6421" y="683.9375"/></g><g><title>BasicAttack</title><rect fill="#FFFFFF" height="94.7031" style="stroke:#181818;stroke-width:1;" width="10" x="658.6421" y="1744.1328"/></g><g><title>Defend</title><rect fill="#FFFFFF" height="58.3516" style="stroke:#181818;stroke-width:1;" width="10" x="741.7832" y="490.1797"/></g><g><title>ShieldBash</title><rect fill="#FFFFFF" height="102.7031" style="stroke:#181818;stroke-width:1;" width="10" x="823.769" y="974.75"/></g><g><title>Potion</title><rect fill="#FFFFFF" height="58.3516" style="stroke:#181818;stroke-width:1;" width="10" x="903.0308" y="1445.3203"/></g><rect fill="#EEEEEE" height="3" style="stroke:#EEEEEE;stroke-width:1;" width="939.8789" x="0" y="68.7852"/><line style="stroke:#000000;stroke-width:1;" x1="0" x2="939.8789" y1="68.7852" y2="68.7852"/><line style="stroke:#000000;stroke-width:1;" x1="0" x2="939.8789" y1="71.7852" y2="71.7852"/><rect fill="#EEEEEE" height="24.3516" style="stroke:#000000;stroke-width:2;" width="209.9585" x="364.9602" y="57.6094"/><text fill="#000000" font-family="sans-serif" font-size="13" font-weight="bold" lengthAdjust="spacing" textLength="192.3467" x="370.9602" y="75.1045">1. Enemy's Turn: Goblin Attack</text><g class="message" data-entity-1="part3" data-entity-2="part5" id="msg1"><polygon fill="#181818" points="503.4795,110.3125,513.4795,114.3125,503.4795,118.3125" style="stroke:#181818;stroke-width:1;"/><line style="stroke:#181818;stroke-width:1;" x1="287.0293" x2="509.4795" y1="114.3125" y2="114.3125"/><text fill="#000000" font-family="sans-serif" font-size="13" lengthAdjust="spacing" textLength="86.709" x="357.8999" y="109.4561">chooseAction()</text></g><g class="message" data-entity-1="part5" data-entity-2="part3" id="msg2"><polygon fill="#181818" points="298.0293,140.6641,288.0293,144.6641,298.0293,148.6641" style="stroke:#181818;stroke-width:1;"/><line style="stroke:#181818;stroke-width:1;stroke-dasharray:2,2;" x1="292.0293" x2="519.4795" y1="144.6641" y2="144.6641"/><text fill="#000000" font-family="sans-serif" font-size="13" lengthAdjust="spacing" textLength="67.9136" x="369.7976" y="139.8076">BasicAttack</text></g><g class="message" data-entity-1="part3" data-entity-2="part6" id="msg3"><polygon fill="#181818" points="646.6421,171.0156,656.6421,175.0156,646.6421,179.0156" style="stroke:#181818;stroke-width:1;"/><line style="stroke:#181818;stroke-width:1;" x1="287.0293" x2="652.6421" y1="175.0156" y2="175.0156"/><text fill="#000000" font-family="sans-serif" font-size="13" lengthAdjust="spacing" textLength="141.5972" x="402.0371" y="170.1592">execute(Goblin, Warrior)</text></g><g class="message" data-entity-1="part6" data-entity-2="part4" id="msg4"><polygon fill="#181818" points="469.3037,201.3672,459.3037,205.3672,469.3037,209.3672" style="stroke:#181818;stroke-width:1;"/><line style="stroke:#181818;stroke-width:1;" x1="463.3037" x2="657.6421" y1="205.3672" y2="205.3672"/><text fill="#000000" font-family="sans-serif" font-size="13" lengthAdjust="spacing" textLength="114.1626" x="501.3916" y="200.5107">receiveDamage(15)</text></g><g class="message" data-entity-1="part4" data-entity-2="part6" id="msg5"><polygon fill="#181818" points="646.6421,215.3672,656.6421,219.3672,646.6421,223.3672" style="stroke:#181818;stroke-width:1;"/><line style="stroke:#181818;stroke-width:1;stroke-dasharray:2,2;" x1="453.3037" x2="652.6421" y1="219.3672" y2="219.3672"/></g><g class="message" data-entity-1="part6" data-entity-2="part3" id="msg6"><polygon fill="#181818" points="298.0293,229.3672,288.0293,233.3672,298.0293,237.3672" style="stroke:#181818;stroke-width:1;"/><line style="stroke:#181818;stroke-width:1;stroke-dasharray:2,2;" x1="292.0293" x2="662.6421" y1="233.3672" y2="233.3672"/></g><rect fill="#EEEEEE" height="3" style="stroke:#EEEEEE;stroke-width:1;" width="939.8789" x="0" y="262.543"/><line style="stroke:#000000;stroke-width:1;" x1="0" x2="939.8789" y1="262.543" y2="262.543"/><line style="stroke:#000000;stroke-width:1;" x1="0" x2="939.8789" y1="265.543" y2="265.543"/><rect fill="#EEEEEE" height="24.3516" style="stroke:#000000;stroke-width:2;" width="222.9839" x="358.4475" y="251.3672"/><text fill="#000000" font-family="sans-serif" font-size="13" font-weight="bold" lengthAdjust="spacing" textLength="205.3721" x="364.4475" y="268.8623">2. Player's Turn: Warrior Defends</text><g class="message" data-entity-1="part3" data-entity-2="part4" id="msg7"><polygon fill="#181818" points="436.3037,304.0703,446.3037,308.0703,436.3037,312.0703" style="stroke:#181818;stroke-width:1;"/><line style="stroke:#181818;stroke-width:1;" x1="287.0293" x2="442.3037" y1="308.0703" y2="308.0703"/><text fill="#000000" font-family="sans-serif" font-size="13" lengthAdjust="spacing" textLength="112.7153" x="311.3088" y="303.2139">chooseAction(view)</text></g><g class="message" data-entity-1="part4" data-entity-2="part2" id="msg8"><polygon fill="#181818" points="190.293,334.4219,180.293,338.4219,190.293,342.4219" style="stroke:#181818;stroke-width:1;"/><line style="stroke:#181818;stroke-width:1;" x1="184.293" x2="447.3037" y1="338.4219" y2="338.4219"/><text fill="#000000" font-family="sans-serif" font-size="13" lengthAdjust="spacing" textLength="71.5254" x="278.0356" y="333.5654">showMenu()</text></g><g class="message" data-entity-1="part2" data-entity-2="part1" id="msg9"><polygon fill="#181818" points="42.8413,364.7734,32.8413,368.7734,42.8413,372.7734" style="stroke:#181818;stroke-width:1;"/><line style="stroke:#181818;stroke-width:1;" x1="36.8413" x2="168.293" y1="368.7734" y2="368.7734"/><text fill="#000000" font-family="sans-serif" font-size="13" lengthAdjust="spacing" textLength="93.7803" x="53.677" y="363.917">"Choose Action"</text></g><g class="message" data-entity-1="part1" data-entity-2="part2" id="msg10"><polygon fill="#181818" points="157.293,395.125,167.293,399.125,157.293,403.125" style="stroke:#181818;stroke-width:1;"/><line style="stroke:#181818;stroke-width:1;" x1="31.8413" x2="163.293" y1="399.125" y2="399.125"/><text fill="#000000" font-family="sans-serif" font-size="13" lengthAdjust="spacing" textLength="85.9917" x="57.5713" y="394.2686">selects Defend</text></g><g class="message" data-entity-1="part2" data-entity-2="part4" id="msg11"><polygon fill="#181818" points="436.3037,425.4766,446.3037,429.4766,436.3037,433.4766" style="stroke:#181818;stroke-width:1;"/><line style="stroke:#181818;stroke-width:1;stroke-dasharray:2,2;" x1="174.293" x2="442.3037" y1="429.4766" y2="429.4766"/><text fill="#000000" font-family="sans-serif" font-size="13" lengthAdjust="spacing" textLength="85.2744" x="268.6611" y="424.6201">Action: Defend</text></g><g class="message" data-entity-1="part4" data-entity-2="part3" id="msg12"><polygon fill="#181818" points="298.0293,455.8281,288.0293,459.8281,298.0293,463.8281" style="stroke:#181818;stroke-width:1;"/><line style="stroke:#181818;stroke-width:1;stroke-dasharray:2,2;" x1="292.0293" x2="452.3037" y1="459.8281" y2="459.8281"/><text fill="#000000" font-family="sans-serif" font-size="13" lengthAdjust="spacing" textLength="85.2744" x="327.5293" y="454.9717">Action: Defend</text></g><g class="message" data-entity-1="part3" data-entity-2="part7" id="msg13"><polygon fill="#181818" points="729.7832,486.1797,739.7832,490.1797,729.7832,494.1797" style="stroke:#181818;stroke-width:1;"/><line style="stroke:#181818;stroke-width:1;" x1="287.0293" x2="735.7832" y1="490.1797" y2="490.1797"/><text fill="#000000" font-family="sans-serif" font-size="13" lengthAdjust="spacing" textLength="146.6245" x="441.094" y="485.3232">execute(Warrior, Warrior)</text></g><g class="message" data-entity-1="part7" data-entity-2="part4" id="msg14"><polygon fill="#181818" points="469.3037,516.5313,459.3037,520.5313,469.3037,524.5313" style="stroke:#181818;stroke-width:1;"/><line style="stroke:#181818;stroke-width:1;" x1="463.3037" x2="740.7832" y1="520.5313" y2="520.5313"/><text fill="#000000" font-family="sans-serif" font-size="13" lengthAdjust="spacing" textLength="165.4834" x="517.3018" y="515.6748">addStatusEffect(DefendBuff)</text></g><g class="message" data-entity-1="part4" data-entity-2="part7" id="msg15"><polygon fill="#181818" points="729.7832,530.5313,739.7832,534.5313,729.7832,538.5313" style="stroke:#181818;stroke-width:1;"/><line style="stroke:#181818;stroke-width:1;stroke-dasharray:2,2;" x1="453.3037" x2="735.7832" y1="534.5313" y2="534.5313"/></g><g class="message" data-entity-1="part7" data-entity-2="part3" id="msg16"><polygon fill="#181818" points="298.0293,544.5313,288.0293,548.5313,298.0293,552.5313" style="stroke:#181818;stroke-width:1;"/><line style="stroke:#181818;stroke-width:1;stroke-dasharray:2,2;" x1="292.0293" x2="745.7832" y1="548.5313" y2="548.5313"/></g><rect fill="#EEEEEE" height="3" style="stroke:#EEEEEE;stroke-width:1;" width="939.8789" x="0" y="577.707"/><line style="stroke:#000000;stroke-width:1;" x1="0" x2="939.8789" y1="577.707" y2="577.707"/><line style="stroke:#000000;stroke-width:1;" x1="0" x2="939.8789" y1="580.707" y2="580.707"/><rect fill="#EEEEEE" height="24.3516" style="stroke:#000000;stroke-width:2;" width="234.543" x="352.668" y="566.5313"/><text fill="#000000" font-family="sans-serif" font-size="13" font-weight="bold" lengthAdjust="spacing" textLength="216.9312" x="358.668" y="584.0264">3. Enemy's Turn: Reduced Damage</text><g class="message" data-entity-1="part3" data-entity-2="part5" id="msg17"><polygon fill="#181818" points="503.4795,619.2344,513.4795,623.2344,503.4795,627.2344" style="stroke:#181818;stroke-width:1;"/><line style="stroke:#181818;stroke-width:1;" x1="287.0293" x2="509.4795" y1="623.2344" y2="623.2344"/><text fill="#000000" font-family="sans-serif" font-size="13" lengthAdjust="spacing" textLength="86.709" x="357.8999" y="618.3779">chooseAction()</text></g><g class="message" data-entity-1="part5" data-entity-2="part3" id="msg18"><polygon fill="#181818" points="298.0293,649.5859,288.0293,653.5859,298.0293,657.5859" style="stroke:#181818;stroke-width:1;"/><line style="stroke:#181818;stroke-width:1;stroke-dasharray:2,2;" x1="292.0293" x2="519.4795" y1="653.5859" y2="653.5859"/><text fill="#000000" font-family="sans-serif" font-size="13" lengthAdjust="spacing" textLength="67.9136" x="369.7976" y="648.7295">BasicAttack</text></g><g class="message" data-entity-1="part3" data-entity-2="part6" id="msg19"><polygon fill="#181818" points="646.6421,679.9375,656.6421,683.9375,646.6421,687.9375" style="stroke:#181818;stroke-width:1;"/><line style="stroke:#181818;stroke-width:1;" x1="287.0293" x2="652.6421" y1="683.9375" y2="683.9375"/><text fill="#000000" font-family="sans-serif" font-size="13" lengthAdjust="spacing" textLength="141.5972" x="402.0371" y="679.0811">execute(Goblin, Warrior)</text></g><g class="message" data-entity-1="part6" data-entity-2="part4" id="msg20"><polygon fill="#181818" points="469.3037,713.2891,459.3037,717.2891,469.3037,721.2891" style="stroke:#181818;stroke-width:1;"/><line style="stroke:#181818;stroke-width:1;" x1="463.3037" x2="657.6421" y1="717.2891" y2="717.2891"/><text fill="#000000" font-family="sans-serif" font-size="13" lengthAdjust="spacing" textLength="106.9326" x="505.0066" y="712.4326">receiveDamage(5)</text></g><path d="M673,696.9375 L673,722.9375 L879,722.9375 L879,706.9375 L869,696.9375 L673,696.9375" fill="#FEFFDD" style="stroke:#181818;stroke-width:0.5;"/><path d="M869,696.9375 L869,706.9375 L879,706.9375 L869,696.9375" fill="#FEFFDD" style="stroke:#181818;stroke-width:0.5;"/><text fill="#000000" font-family="sans-serif" font-size="13" lengthAdjust="spacing" textLength="185.7261" x="679" y="715.4326">Damage reduced by DefendBuff</text><g class="message" data-entity-1="part4" data-entity-2="part6" id="msg22"><polygon fill="#181818" points="646.6421,730.2891,656.6421,734.2891,646.6421,738.2891" style="stroke:#181818;stroke-width:1;"/><line style="stroke:#181818;stroke-width:1;stroke-dasharray:2,2;" x1="453.3037" x2="652.6421" y1="734.2891" y2="734.2891"/></g><g class="message" data-entity-1="part6" data-entity-2="part3" id="msg23"><polygon fill="#181818" points="298.0293,744.2891,288.0293,748.2891,298.0293,752.2891" style="stroke:#181818;stroke-width:1;"/><line style="stroke:#181818;stroke-width:1;stroke-dasharray:2,2;" x1="292.0293" x2="662.6421" y1="748.2891" y2="748.2891"/></g><rect fill="#EEEEEE" height="3" style="stroke:#EEEEEE;stroke-width:1;" width="939.8789" x="0" y="777.4648"/><line style="stroke:#000000;stroke-width:1;" x1="0" x2="939.8789" y1="777.4648" y2="777.4648"/><line style="stroke:#000000;stroke-width:1;" x1="0" x2="939.8789" y1="780.4648" y2="780.4648"/><rect fill="#EEEEEE" height="24.3516" style="stroke:#000000;stroke-width:2;" width="196.2603" x="371.8093" y="766.2891"/><text fill="#000000" font-family="sans-serif" font-size="13" font-weight="bold" lengthAdjust="spacing" textLength="178.6484" x="377.8093" y="783.7842">4. Player's Turn: Shield Bash</text><g class="message" data-entity-1="part3" data-entity-2="part4" id="msg24"><polygon fill="#181818" points="436.3037,818.9922,446.3037,822.9922,436.3037,826.9922" style="stroke:#181818;stroke-width:1;"/><line style="stroke:#181818;stroke-width:1;" x1="287.0293" x2="442.3037" y1="822.9922" y2="822.9922"/><text fill="#000000" font-family="sans-serif" font-size="13" lengthAdjust="spacing" textLength="112.7153" x="311.3088" y="818.1357">chooseAction(view)</text></g><g class="message" data-entity-1="part4" data-entity-2="part2" id="msg25"><polygon fill="#181818" points="190.293,849.3438,180.293,853.3438,190.293,857.3438" style="stroke:#181818;stroke-width:1;"/><line style="stroke:#181818;stroke-width:1;" x1="184.293" x2="447.3037" y1="853.3438" y2="853.3438"/><text fill="#000000" font-family="sans-serif" font-size="13" lengthAdjust="spacing" textLength="71.5254" x="278.0356" y="848.4873">showMenu()</text></g><g class="message" data-entity-1="part1" data-entity-2="part2" id="msg26"><polygon fill="#181818" points="157.293,879.6953,167.293,883.6953,157.293,887.6953" style="stroke:#181818;stroke-width:1;"/><line style="stroke:#181818;stroke-width:1;" x1="31.8413" x2="163.293" y1="883.6953" y2="883.6953"/><text fill="#000000" font-family="sans-serif" font-size="13" lengthAdjust="spacing" textLength="113.4517" x="43.8413" y="878.8389">selects Shield Bash</text></g><g class="message" data-entity-1="part2" data-entity-2="part4" id="msg27"><polygon fill="#181818" points="436.3037,910.0469,446.3037,914.0469,436.3037,918.0469" style="stroke:#181818;stroke-width:1;"/><line style="stroke:#181818;stroke-width:1;stroke-dasharray:2,2;" x1="174.293" x2="442.3037" y1="914.0469" y2="914.0469"/><text fill="#000000" font-family="sans-serif" font-size="13" lengthAdjust="spacing" textLength="109.1226" x="256.7371" y="909.1904">Action: ShieldBash</text></g><g class="message" data-entity-1="part4" data-entity-2="part3" id="msg28"><polygon fill="#181818" points="298.0293,940.3984,288.0293,944.3984,298.0293,948.3984" style="stroke:#181818;stroke-width:1;"/><line style="stroke:#181818;stroke-width:1;stroke-dasharray:2,2;" x1="292.0293" x2="452.3037" y1="944.3984" y2="944.3984"/><text fill="#000000" font-family="sans-serif" font-size="13" lengthAdjust="spacing" textLength="109.1226" x="315.6052" y="939.542">Action: ShieldBash</text></g><g class="message" data-entity-1="part3" data-entity-2="part8" id="msg29"><polygon fill="#181818" points="811.769,970.75,821.769,974.75,811.769,978.75" style="stroke:#181818;stroke-width:1;"/><line style="stroke:#181818;stroke-width:1;" x1="287.0293" x2="817.769" y1="974.75" y2="974.75"/><text fill="#000000" font-family="sans-serif" font-size="13" lengthAdjust="spacing" textLength="141.5972" x="484.6006" y="969.8936">execute(Warrior, Goblin)</text></g><g class="message" data-entity-1="part8" data-entity-2="part5" id="msg30"><polygon fill="#181818" points="536.4795,1001.1016,526.4795,1005.1016,536.4795,1009.1016" style="stroke:#181818;stroke-width:1;"/><line style="stroke:#181818;stroke-width:1;" x1="530.4795" x2="822.769" y1="1005.1016" y2="1005.1016"/><text fill="#000000" font-family="sans-serif" font-size="13" lengthAdjust="spacing" textLength="114.1626" x="617.543" y="1000.2451">receiveDamage(25)</text></g><g class="message" data-entity-1="part5" data-entity-2="part8" id="msg31"><polygon fill="#181818" points="811.769,1015.1016,821.769,1019.1016,811.769,1023.1016" style="stroke:#181818;stroke-width:1;"/><line style="stroke:#181818;stroke-width:1;stroke-dasharray:2,2;" x1="520.4795" x2="817.769" y1="1019.1016" y2="1019.1016"/></g><g class="message" data-entity-1="part8" data-entity-2="part5" id="msg32"><polygon fill="#181818" points="536.4795,1045.4531,526.4795,1049.4531,536.4795,1053.4531" style="stroke:#181818;stroke-width:1;"/><line style="stroke:#181818;stroke-width:1;" x1="530.4795" x2="822.769" y1="1049.4531" y2="1049.4531"/><text fill="#000000" font-family="sans-serif" font-size="13" lengthAdjust="spacing" textLength="127.1816" x="611.0334" y="1044.5967">addStatusEffect(Stun)</text></g><g class="message" data-entity-1="part5" data-entity-2="part8" id="msg33"><polygon fill="#181818" points="811.769,1059.4531,821.769,1063.4531,811.769,1067.4531" style="stroke:#181818;stroke-width:1;"/><line style="stroke:#181818;stroke-width:1;stroke-dasharray:2,2;" x1="520.4795" x2="817.769" y1="1063.4531" y2="1063.4531"/></g><g class="message" data-entity-1="part8" data-entity-2="part3" id="msg34"><polygon fill="#181818" points="298.0293,1073.4531,288.0293,1077.4531,298.0293,1081.4531" style="stroke:#181818;stroke-width:1;"/><line style="stroke:#181818;stroke-width:1;stroke-dasharray:2,2;" x1="292.0293" x2="827.769" y1="1077.4531" y2="1077.4531"/></g><rect fill="#EEEEEE" height="3" style="stroke:#EEEEEE;stroke-width:1;" width="939.8789" x="0" y="1106.6289"/><line style="stroke:#000000;stroke-width:1;" x1="0" x2="939.8789" y1="1106.6289" y2="1106.6289"/><line style="stroke:#000000;stroke-width:1;" x1="0" x2="939.8789" y1="1109.6289" y2="1109.6289"/><rect fill="#EEEEEE" height="24.3516" style="stroke:#000000;stroke-width:2;" width="177.4458" x="381.2166" y="1095.4531"/><text fill="#000000" font-family="sans-serif" font-size="13" font-weight="bold" lengthAdjust="spacing" textLength="159.834" x="387.2166" y="1112.9482">5. Enemy's Turn: Stunned</text><g class="message" data-entity-1="part3" data-entity-2="part5" id="msg35"><polygon fill="#181818" points="503.4795,1148.1563,513.4795,1152.1563,503.4795,1156.1563" style="stroke:#181818;stroke-width:1;"/><line style="stroke:#181818;stroke-width:1;" x1="287.0293" x2="509.4795" y1="1152.1563" y2="1152.1563"/><text fill="#000000" font-family="sans-serif" font-size="13" lengthAdjust="spacing" textLength="90.3145" x="356.0972" y="1147.2998">canAct(context)</text></g><path d="M530,1165.1563 L530,1191.1563 L654,1191.1563 L654,1175.1563 L644,1165.1563 L530,1165.1563" fill="#FEFFDD" style="stroke:#181818;stroke-width:0.5;"/><path d="M644,1165.1563 L644,1175.1563 L654,1175.1563 L644,1165.1563" fill="#FEFFDD" style="stroke:#181818;stroke-width:0.5;"/><text fill="#000000" font-family="sans-serif" font-size="13" lengthAdjust="spacing" textLength="103.3525" x="536" y="1183.6514">IsStunned == true</text><g class="message" data-entity-1="part5" data-entity-2="part3" id="msg36"><polygon fill="#181818" points="298.0293,1214.8594,288.0293,1218.8594,298.0293,1222.8594" style="stroke:#181818;stroke-width:1;"/><line style="stroke:#181818;stroke-width:1;stroke-dasharray:2,2;" x1="292.0293" x2="519.4795" y1="1218.8594" y2="1218.8594"/><text fill="#000000" font-family="sans-serif" font-size="13" lengthAdjust="spacing" textLength="49.8481" x="378.8303" y="1214.0029">skipTurn</text></g><rect fill="#EEEEEE" height="3" style="stroke:#EEEEEE;stroke-width:1;" width="939.8789" x="0" y="1248.0352"/><line style="stroke:#000000;stroke-width:1;" x1="0" x2="939.8789" y1="1248.0352" y2="1248.0352"/><line style="stroke:#000000;stroke-width:1;" x1="0" x2="939.8789" y1="1251.0352" y2="1251.0352"/><rect fill="#EEEEEE" height="24.3516" style="stroke:#000000;stroke-width:2;" width="189.7476" x="375.0657" y="1236.8594"/><text fill="#000000" font-family="sans-serif" font-size="13" font-weight="bold" lengthAdjust="spacing" textLength="172.1357" x="381.0657" y="1254.3545">6. Player's Turn: Use Potion</text><g class="message" data-entity-1="part3" data-entity-2="part4" id="msg37"><polygon fill="#181818" points="436.3037,1289.5625,446.3037,1293.5625,436.3037,1297.5625" style="stroke:#181818;stroke-width:1;"/><line style="stroke:#181818;stroke-width:1;" x1="287.0293" x2="442.3037" y1="1293.5625" y2="1293.5625"/><text fill="#000000" font-family="sans-serif" font-size="13" lengthAdjust="spacing" textLength="112.7153" x="311.3088" y="1288.7061">chooseAction(view)</text></g><g class="message" data-entity-1="part4" data-entity-2="part2" id="msg38"><polygon fill="#181818" points="190.293,1319.9141,180.293,1323.9141,190.293,1327.9141" style="stroke:#181818;stroke-width:1;"/><line style="stroke:#181818;stroke-width:1;" x1="184.293" x2="447.3037" y1="1323.9141" y2="1323.9141"/><text fill="#000000" font-family="sans-serif" font-size="13" lengthAdjust="spacing" textLength="71.5254" x="278.0356" y="1319.0576">showMenu()</text></g><g class="message" data-entity-1="part1" data-entity-2="part2" id="msg39"><polygon fill="#181818" points="157.293,1350.2656,167.293,1354.2656,157.293,1358.2656" style="stroke:#181818;stroke-width:1;"/><line style="stroke:#181818;stroke-width:1;" x1="31.8413" x2="163.293" y1="1354.2656" y2="1354.2656"/><text fill="#000000" font-family="sans-serif" font-size="13" lengthAdjust="spacing" textLength="80.9326" x="60.1008" y="1349.4092">selects Potion</text></g><g class="message" data-entity-1="part2" data-entity-2="part4" id="msg40"><polygon fill="#181818" points="436.3037,1380.6172,446.3037,1384.6172,436.3037,1388.6172" style="stroke:#181818;stroke-width:1;"/><line style="stroke:#181818;stroke-width:1;stroke-dasharray:2,2;" x1="174.293" x2="442.3037" y1="1384.6172" y2="1384.6172"/><text fill="#000000" font-family="sans-serif" font-size="13" lengthAdjust="spacing" textLength="137.2744" x="242.6611" y="1379.7607">Action: UseItem(Potion)</text></g><g class="message" data-entity-1="part4" data-entity-2="part3" id="msg41"><polygon fill="#181818" points="298.0293,1410.9688,288.0293,1414.9688,298.0293,1418.9688" style="stroke:#181818;stroke-width:1;"/><line style="stroke:#181818;stroke-width:1;stroke-dasharray:2,2;" x1="292.0293" x2="452.3037" y1="1414.9688" y2="1414.9688"/><text fill="#000000" font-family="sans-serif" font-size="13" lengthAdjust="spacing" textLength="137.2744" x="301.5293" y="1410.1123">Action: UseItem(Potion)</text></g><g class="message" data-entity-1="part3" data-entity-2="part9" id="msg42"><polygon fill="#181818" points="891.0308,1441.3203,901.0308,1445.3203,891.0308,1449.3203" style="stroke:#181818;stroke-width:1;"/><line style="stroke:#181818;stroke-width:1;" x1="287.0293" x2="897.0308" y1="1445.3203" y2="1445.3203"/><text fill="#000000" font-family="sans-serif" font-size="13" lengthAdjust="spacing" textLength="72.2236" x="558.9182" y="1440.4639">use(Warrior)</text></g><g class="message" data-entity-1="part9" data-entity-2="part4" id="msg43"><polygon fill="#181818" points="469.3037,1471.6719,459.3037,1475.6719,469.3037,1479.6719" style="stroke:#181818;stroke-width:1;"/><line style="stroke:#181818;stroke-width:1;" x1="463.3037" x2="902.0308" y1="1475.6719" y2="1475.6719"/><text fill="#000000" font-family="sans-serif" font-size="13" lengthAdjust="spacing" textLength="54.9263" x="653.2041" y="1470.8154">heal(100)</text></g><g class="message" data-entity-1="part4" data-entity-2="part9" id="msg44"><polygon fill="#181818" points="891.0308,1485.6719,901.0308,1489.6719,891.0308,1493.6719" style="stroke:#181818;stroke-width:1;"/><line style="stroke:#181818;stroke-width:1;stroke-dasharray:2,2;" x1="453.3037" x2="897.0308" y1="1489.6719" y2="1489.6719"/></g><g class="message" data-entity-1="part9" data-entity-2="part3" id="msg45"><polygon fill="#181818" points="298.0293,1499.6719,288.0293,1503.6719,298.0293,1507.6719" style="stroke:#181818;stroke-width:1;"/><line style="stroke:#181818;stroke-width:1;stroke-dasharray:2,2;" x1="292.0293" x2="907.0308" y1="1503.6719" y2="1503.6719"/></g><rect fill="#EEEEEE" height="3" style="stroke:#EEEEEE;stroke-width:1;" width="939.8789" x="0" y="1532.8477"/><line style="stroke:#000000;stroke-width:1;" x1="0" x2="939.8789" y1="1532.8477" y2="1532.8477"/><line style="stroke:#000000;stroke-width:1;" x1="0" x2="939.8789" y1="1535.8477" y2="1535.8477"/><rect fill="#EEEEEE" height="24.3516" style="stroke:#000000;stroke-width:2;" width="204.8931" x="367.4929" y="1521.6719"/><text fill="#000000" font-family="sans-serif" font-size="13" font-weight="bold" lengthAdjust="spacing" textLength="187.2813" x="373.4929" y="1539.167">7. Enemy's Turn: Still Stunned</text><g class="message" data-entity-1="part3" data-entity-2="part5" id="msg46"><polygon fill="#181818" points="503.4795,1574.375,513.4795,1578.375,503.4795,1582.375" style="stroke:#181818;stroke-width:1;"/><line style="stroke:#181818;stroke-width:1;" x1="287.0293" x2="509.4795" y1="1578.375" y2="1578.375"/><text fill="#000000" font-family="sans-serif" font-size="13" lengthAdjust="spacing" textLength="90.3145" x="356.0972" y="1573.5186">canAct(context)</text></g><g class="message" data-entity-1="part5" data-entity-2="part3" id="msg47"><polygon fill="#181818" points="298.0293,1604.7266,288.0293,1608.7266,298.0293,1612.7266" style="stroke:#181818;stroke-width:1;"/><line style="stroke:#181818;stroke-width:1;stroke-dasharray:2,2;" x1="292.0293" x2="519.4795" y1="1608.7266" y2="1608.7266"/><text fill="#000000" font-family="sans-serif" font-size="13" lengthAdjust="spacing" textLength="49.8481" x="378.8303" y="1603.8701">skipTurn</text></g><rect fill="#EEEEEE" height="3" style="stroke:#EEEEEE;stroke-width:1;" width="939.8789" x="0" y="1637.9023"/><line style="stroke:#000000;stroke-width:1;" x1="0" x2="939.8789" y1="1637.9023" y2="1637.9023"/><line style="stroke:#000000;stroke-width:1;" x1="0" x2="939.8789" y1="1640.9023" y2="1640.9023"/><rect fill="#EEEEEE" height="24.3516" style="stroke:#000000;stroke-width:2;" width="224.4185" x="357.7302" y="1626.7266"/><text fill="#000000" font-family="sans-serif" font-size="13" font-weight="bold" lengthAdjust="spacing" textLength="206.8066" x="363.7302" y="1644.2217">8. Player's Turn: Eliminate Goblin</text><g class="message" data-entity-1="part3" data-entity-2="part4" id="msg48"><polygon fill="#181818" points="436.3037,1679.4297,446.3037,1683.4297,436.3037,1687.4297" style="stroke:#181818;stroke-width:1;"/><line style="stroke:#181818;stroke-width:1;" x1="287.0293" x2="442.3037" y1="1683.4297" y2="1683.4297"/><text fill="#000000" font-family="sans-serif" font-size="13" lengthAdjust="spacing" textLength="112.7153" x="311.3088" y="1678.5732">chooseAction(view)</text></g><g class="message" data-entity-1="part4" data-entity-2="part3" id="msg49"><polygon fill="#181818" points="298.0293,1709.7813,288.0293,1713.7813,298.0293,1717.7813" style="stroke:#181818;stroke-width:1;"/><line style="stroke:#181818;stroke-width:1;stroke-dasharray:2,2;" x1="292.0293" x2="452.3037" y1="1713.7813" y2="1713.7813"/><text fill="#000000" font-family="sans-serif" font-size="13" lengthAdjust="spacing" textLength="67.9136" x="336.2097" y="1708.9248">BasicAttack</text></g><g class="message" data-entity-1="part3" data-entity-2="part6" id="msg50"><polygon fill="#181818" points="646.6421,1740.1328,656.6421,1744.1328,646.6421,1748.1328" style="stroke:#181818;stroke-width:1;"/><line style="stroke:#181818;stroke-width:1;" x1="287.0293" x2="652.6421" y1="1744.1328" y2="1744.1328"/><text fill="#000000" font-family="sans-serif" font-size="13" lengthAdjust="spacing" textLength="141.5972" x="402.0371" y="1739.2764">execute(Warrior, Goblin)</text></g><g class="message" data-entity-1="part6" data-entity-2="part5" id="msg51"><polygon fill="#181818" points="536.4795,1770.4844,526.4795,1774.4844,536.4795,1778.4844" style="stroke:#181818;stroke-width:1;"/><line style="stroke:#181818;stroke-width:1;" x1="530.4795" x2="657.6421" y1="1774.4844" y2="1774.4844"/><text fill="#000000" font-family="sans-serif" font-size="13" lengthAdjust="spacing" textLength="114.1626" x="534.9795" y="1769.6279">receiveDamage(25)</text></g><path d="M530,1787.4844 L530,1813.4844 L629,1813.4844 L629,1797.4844 L619,1787.4844 L530,1787.4844" fill="#FEFFDD" style="stroke:#181818;stroke-width:0.5;"/><path d="M619,1787.4844 L619,1797.4844 L629,1797.4844 L619,1787.4844" fill="#FEFFDD" style="stroke:#181818;stroke-width:0.5;"/><text fill="#000000" font-family="sans-serif" font-size="13" lengthAdjust="spacing" textLength="78.7617" x="536" y="1805.9795">HP reaches 0</text><g class="message" data-entity-1="part5" data-entity-2="part6" id="msg52"><polygon fill="#181818" points="646.6421,1820.8359,656.6421,1824.8359,646.6421,1828.8359" style="stroke:#181818;stroke-width:1;"/><line style="stroke:#181818;stroke-width:1;stroke-dasharray:2,2;" x1="520.4795" x2="652.6421" y1="1824.8359" y2="1824.8359"/></g><g class="message" data-entity-1="part6" data-entity-2="part3" id="msg53"><polygon fill="#181818" points="298.0293,1834.8359,288.0293,1838.8359,298.0293,1842.8359" style="stroke:#181818;stroke-width:1;"/><line style="stroke:#181818;stroke-width:1;stroke-dasharray:2,2;" x1="292.0293" x2="662.6421" y1="1838.8359" y2="1838.8359"/></g><g class="message" data-entity-1="part3" data-entity-2="part3" id="msg54"><line style="stroke:#181818;stroke-width:1;" x1="287.0293" x2="329.0293" y1="1869.1875" y2="1869.1875"/><line style="stroke:#181818;stroke-width:1;" x1="329.0293" x2="329.0293" y1="1869.1875" y2="1882.1875"/><line style="stroke:#181818;stroke-width:1;" x1="288.0293" x2="329.0293" y1="1882.1875" y2="1882.1875"/><polygon fill="#181818" points="298.0293,1878.1875,288.0293,1882.1875,298.0293,1886.1875" style="stroke:#181818;stroke-width:1;"/><text fill="#000000" font-family="sans-serif" font-size="13" lengthAdjust="spacing" textLength="127.8862" x="294.0293" y="1864.3311">registerDefeat(Goblin)</text></g><g class="message" data-entity-1="part3" data-entity-2="part2" id="msg55"><polygon fill="#181818" points="190.293,1908.5391,180.293,1912.5391,190.293,1916.5391" style="stroke:#181818;stroke-width:1;"/><line style="stroke:#181818;stroke-width:1;" x1="184.293" x2="276.0293" y1="1912.5391" y2="1912.5391"/><text fill="#000000" font-family="sans-serif" font-size="13" lengthAdjust="spacing" textLength="78.7363" x="188.793" y="1907.6826">showVictory()</text></g><g class="message" data-entity-1="part2" data-entity-2="part1" id="msg56"><polygon fill="#181818" points="42.8413,1938.8906,32.8413,1942.8906,42.8413,1946.8906" style="stroke:#181818;stroke-width:1;"/><line style="stroke:#181818;stroke-width:1;stroke-dasharray:2,2;" x1="36.8413" x2="173.293" y1="1942.8906" y2="1942.8906"/><text fill="#000000" font-family="sans-serif" font-size="13" lengthAdjust="spacing" textLength="52.5713" x="76.7815" y="1938.0342">"Victory!"</text></g><?plantuml-src pLPHRzCm47xFhpZwGYQnQHiCKALEQfSfJ69IHO4yUywriPOu8tQszT_l7AUDdMQZW42yj4dkkxlFTv_FLhT2th6A5R3Gwnn1wKfmNHTve3eB_gXHShn6fTWAfxbOoGAb1au_M0K1mRJWuexHjz4yPskiHi0Kp7rBp0gy-7pLcEZVDywOrZbUofMGs23iemzAM5M9qWPFUi7Bcrp8nXBt8ol1frepVjkOPrFV7k4IPTgO8j-oo0JcAVbdZNKnwwsqrAAqAUan21ZNufvft50F9XCuEQ8tBDQl5NojApa6onCi7vXC0Wk6mtE8OGmyAqk5KsuYXmTTo3Y8uP0mBNeCpgg251rS5sys9Hm-8gyrXZRl6sXBw8IcUX2Iy0d1A-GexZ5Y1NKwF3bpS4cGD1G8xoHC6kSjCzT4G5E2qoEmcjZMeEK0jlBAhqBIhyAzm8S-ZNCZ80Agh7ouHbcxfJBICbO2pGaokcY2WOqs2kQED-R8jMfvMAUMWKMFDoPdLIPyulVYUN0IE2kBd7Qq9HZgHnH4cpgmD5refcjrkLmIqz0ccDNBvK1V8Zznz4nNegOfR_kw_89fpJ45s_d_NPYaIraIf1AhJ8ytfAjs3JThw2hrvm9-joDWEnZCKhE_8Du1XJe91sNQJQezfJhiuCbrCHlIgssNmvYc8Y5RbVXTEZqR40hXFLbqpdsrBtGjzmmms3u2clQTzQLkuagIoQx6cQJwXBoaO-rHUwaxjK6vX7WCLweB0xggiRyFwFoyC_byieRG-nqzVQFvP4-JVoCdcsjGIKJbIcCHMiZ1dd9wmSlJ5Dd9grPRGJbSpHbgx2sX35aUdXmV3qmwW_GoD6w36cWEPghvXrqHY3p_BIditUUFEts-p4KXP8Emru1Vx_OUezQhk3Thdz_5srdxqrsyinC-pSc1yGmL7BV5yITi_FA4xRXk5rRXIYYwMfefpdIuOTiXEyL_f-jgMQq7Bm2R6q2BUJNggzbzjy6V0000?></g></svg>